<svg id="SvgjsSvg1001" width="288" height="288" xmlns="http://www.w3.org/2000/svg" version="1.1" xmlns:xlink="http://www.w3.org/1999/xlink" xmlns:svgjs="http://svgjs.com/svgjs"><defs id="SvgjsDefs1002"></defs><g id="SvgjsG1008" transform="matrix(1,0,0,1,0,0)"><svg xmlns="http://www.w3.org/2000/svg" xmlns:svgjs="http://svgjs.com/svgjs" xmlns:xlink="http://www.w3.org/1999/xlink" width="288" height="288"><svg xmlns="http://www.w3.org/2000/svg" xmlns:svgjs="http://svgjs.com/svgjs" xmlns:xlink="http://www.w3.org/1999/xlink" width="288" height="288"><svg xmlns="http://www.w3.org/2000/svg" width="288" height="288" version="1.0" viewBox="0 0 799 799"><path d="M2870 7569 c-610 -70 -1182 -434 -1499 -952 -365 -599 -402 -1338-97 -1962 312 -638 908 -1055 1625 -1136 l103 -12 -6 -126 c-3 -69 -8 -218-11 -331 -9 -298 -22 -446 -55 -611 -67 -332 -189 -607 -367 -829 -82 -101-148 -162 -273 -250 -58 -40 -106 -74 -108 -76 -8 -6 387 -696 425 -743 l19
-23 80 71 c133 117 442 480 559 656 126 189 236 405 333 657 99 254 141 502
158 941 l7 177 1214 0 1213 0 -2 443 -3 442 -928 5 -927 5 55 44 c80 64 280
273 348 363 287 383 422 823 404 1313 -4 88 -13 200 -21 250 -8 49 -13 92 -10
95 3 3 74 5 157 5 306 -1 520 -81 812 -303 90 -69 288 -265 367 -364 l69 -87
172 85 c290 145 480 241 525 266 l42 25 -52 86 c-353 581 -960 970 -1649 1057
-118 14 -403 12 -544 -5 -66 -8 -147 -17 -180 -20 l-60 -6 -42 58 c-269 375
-744 675 -1209 762 -214 41 -454 52 -644 30z m420 -724 c269 -40 516 -160 709
-341 l81 -76 -58 -37 c-98 -64 -253 -194 -352 -297 -279 -288 -470 -630 -571
-1022 -37 -143 -56 -295 -64 -492 -3 -85 -8 -197 -11 -249 l-6 -94 -73 7
c-213 19 -452 118 -643 265 -252 195 -420 467 -489 791 -24 117 -24 371 1 490
110 529 506 932 1022 1039 54 11 115 22 134 24 87 9 233 6 320 -8z m1127
-1324 c-3 -80 -12 -177 -20 -216 -56 -254 -176 -487 -343 -664 -71 -76 -193
-181 -209 -181 -13 0 3 282 20 357 64 288 197 526 412 741 73 73 128 120 134
116 8 -5 10 -49 6 -153z" class="color000 svgShape colorf8f7f3" transform="matrix(.1 0 0 -.1 0 799)" style="--darkreader-inline-fill:#272417" fill="#ffffff"></path></svg></svg></svg></g></svg>